# xmcd
#
# Track frame offsets: 
#        150
#        21393
#        33372
#        50642
#        66875
#        77556
#        89818
#        110733
#        125190
#        138434
#        152280
#
# Disc length: 2186 seconds
#
# Revision: 0
# Processed by: cddbd v1.5.2PL0 Copyright (c) Steve Scherf et al.
# Submitted via: ExactAudioCopy v0.95a1
#
DISCID=9a08880b
DTITLE=Townes Van Zandt - For The Sake Of The Song
DYEAR=1968
DGENRE=Country
TTITLE0=For The Sake Of The Song
TTITLE1=Tecumseh Valley
TTITLE2=Many A Fine Lady
TTITLE3=Quicksilver Daydreams Of Maria
TTITLE4=Waitin' Around To Die
TTITLE5=I'll Be There In The Morning
TTITLE6=Sad Cinderella
TTITLE7=The Velvet Voices
TTITLE8=All Your Young Servants
TTITLE9=Talkin' Karate Blues
TTITLE10=Sixteen Summers, Fifteen Falls
EXTD=
EXTT0=
EXTT1=
EXTT2=
EXTT3=
EXTT4=
EXTT5=
EXTT6=
EXTT7=
EXTT8=
EXTT9=
EXTT10=
PLAYORDER=
